<svg version="1.1"
     baseProfile="full"
     width="440" height="280"
     xmlns="http://www.w3.org/2000/svg">
  <!--
  <rect width="100%" height="100%" fill="gray" />
  -->
  
  <rect x="16" y="16" width="408" height="248" stroke="black" fill="#ffaf0f" stroke-width="12"/>
  
  <line x1="38" x2="38" y1="32" y2="242" stroke="black" fill="transparent" stroke-width="12"/>
  
  <line x1="63" x2="63" y1="32" y2="178" stroke="black" fill="transparent" stroke-width="18"/>
  
  <line x1="88" x2="88" y1="32" y2="178" stroke="black" fill="transparent" stroke-width="12"/>
  
  <line x1="110" x2="110" y1="32" y2="178" stroke="black" fill="transparent" stroke-width="12"/>
  
  <line x1="144" x2="144" y1="32" y2="178" stroke="black" fill="transparent" stroke-width="36"/>
  
  <line x1="184" x2="184" y1="32" y2="178" stroke="black" fill="transparent" stroke-width="24"/>
  
  <line x1="212" x2="212" y1="32" y2="178" stroke="black" fill="transparent" stroke-width="12"/>
  
  <line x1="230" x2="230" y1="32" y2="178" stroke="black" fill="transparent" stroke-width="12"/>
  
  <line x1="260" x2="260" y1="32" y2="178" stroke="black" fill="transparent" stroke-width="24"/>
  
  <line x1="290" x2="290" y1="32" y2="178" stroke="black" fill="transparent" stroke-width="12"/>

  <line x1="312" x2="312" y1="32" y2="178" stroke="black" fill="transparent" stroke-width="12"/>

  <line x1="334" x2="334" y1="32" y2="178" stroke="black" fill="transparent" stroke-width="12"/>
  
  <line x1="368" x2="368" y1="32" y2="178" stroke="black" fill="transparent" stroke-width="36"/>
  
  <line x1="402" x2="402" y1="32" y2="242" stroke="black" fill="transparent" stroke-width="12"/>

  <text x="54" y="238" font-family="Geneva, Tahoma, Verdana, sans-serif" font-size="68px" font-weight="bold">Vaultpass</text>

</svg>